<?xml version="1.0" encoding="utf-8"?>
<!-- Generator: Adobe Illustrator 24.0.1, SVG Export Plug-In . SVG Version: 6.00 Build 0)  -->
<svg version="1.1" id="Layer_1" xmlns="http://www.w3.org/2000/svg" xmlns:xlink="http://www.w3.org/1999/xlink" x="0px" y="0px"
	 viewBox="0 0 1280 1002" style="enable-background:new 0 0 1280 1002;" xml:space="preserve">
<style type="text/css">
	.st0{fill:#FFFFFF;}
</style>
<g transform="translate(0.000000,1002.000000) scale(0.100000,-0.100000)">
	<path class="st0" d="M6061,9875c-63-8-221-33-351-55c-377-64-454-70-838-70c-354,0-471-7-629-40c-373-77-788-311-1112-625
		c-287-279-437-486-861-1185c-266-439-309-507-430-680c-103-147-133-205-163-308c-21-75-22-90-19-542c1-279-2-513-8-585
		c-31-337-119-549-380-910c-312-433-382-532-507-720c-445-667-582-988-533-1246c6-30,13-74,15-99s16-80,30-123
		c132-404,590-822,1135-1035c296-115,480-152,790-159c358-8,619,31,1020,154c107,32,278,99,290,112c3,3,21,14,40,24s27,15,17,12
		c-83-24-46-6,81,39c282,101,515,199,752,317c263,130,344,182,575,364c195,155,293,222,365,252c65,27,81,28,74,8c-12-31,8-65,72-118
		c36-30,98-94,138-143c39-49,83-100,97-114c50-48,82-75,74-61c-6,10-4,12,4,7c7-5,10-15,7-23s-2-12,3-8c5,3,43-48,84-112
		c238-377,375-701,603-1418c112-352,155-476,161-458c12,34-145,548-312,1023c-167,474-307,824-417,1043c-75,151-88,195-88,304
		c0,51,4,93,9,93s11,19,15,42c4,24,22,98,42,166s33,130,30,138c-4,10-2,12,6,8c7-5,9-2,5,9c-7,19,16,87,102,310c34,88,60,164,59,169
		c-2,6-80-72-173-173c-324-352-484-507-708-687c-116-93-397-280-543-360c-672-372-1620-644-2334-669c-514-18-950,115-1216,371
		l-69,66l27,24c14,13,63,38,107,55c105,40,184,94,300,206c216,208,386,453,411,591c4,27,13,77,20,111c32,166-92,297-345,364
		c-111,30-325,31-525,1c-141-21-212-27-257-24c-20,2-21,6-17,48c5,56,2,50,194,379c86,149,210,365,275,480c298,532,295,528,581,910
		c241,322,301,408,348,502c38,78,55,125,60,174c3,19,9,62,14,96c23,143-17,260-178,523c-105,170-137,236-156,317
		c-27,117,2,225,82,309c21,22,30,30,20,17c-42-51,41-13,176,79c119,81,294,233,376,326c87,99,193,241,317,422
		c212,312,337,469,504,637c384,386,787,595,1384,718c267,55,379,62,642,41c124-10,406-22,645-26c453-9,550-17,748-66
		c459-113,1136-470,2032-1073c660-444,1194-863,1535-1205c199-199,278-293,395-468c135-203,264-498,310-708c6-30,14-62,17-70
		c4-8,5-21,4-28c-1-8,2-19,8-26c19-22,32-293,21-437c-22-278-83-496-215-764c-177-358-431-692-816-1070c-216-212-364-335-546-456
		c-397-260-838-388-1298-376c-195,5-286,22-382,71c-254,128-379,458-424,1116c-13,199-7,932,11,1225c6,99,24,398,40,665
		c46,761,52,885,52,1205c0,490-38,759-149,1040c-123,313-375,613-606,721c-75,35-164,34-207-2c-69-59-99-174-80-313
		c7-47,14-102,16-122c5-58,58-192,110-279c59-98,149-213,314-395c249-276,304-349,386-512c28-56,54-100,56-97c9,9,28-115,39-260
		c21-264-13-689-131-1636c-102-813-124-1072-124-1410c0-210,4-290,19-385c10-66,18-132,18-147c0-16,3-28,6-28s6-15,7-33
		c1-44,58-216,102-302c136-273,358-449,661-525c465-117,1165,49,1789,425c78,46,172,106,209,132c520,360,1027,902,1358,1452
		c89,149,155,187,252,146c19-8,97-63,172-122c277-218,427-331,481-363l55-32l-40,44c-22,23,28-23,111-105c83-81,158-147,167-147
		c27,0,20,32-22,115c-113,217-456,612-770,885c-151,131-144,102-81,323c22,76,42,157,44,180s14,107,26,187c24,165,29,402,10,540
		c-61,452-272,773-850,1289C9685,8355,8026,9435,7079,9756c-140,47-288,85-424,110C6528,9888,6207,9893,6061,9875z M3460,1765
		c-19-7-42-13-50-13s1,6,20,13s42,13,50,13S3479,1772,3460,1765z"/>
	<path class="st0" d="M3910,6984c-171-33-217-95-176-240c8-27,17-69,20-93c18-124,219-417,370-539c134-109,263-143,393-104
		c80,25,154,74,273,182c47,42,120,103,164,135c57,42,83,68,95,96c13,31,23,40,49,45c19,4,36,13,39,20c22,59-119,214-257,281
		c-146,70-333,124-635,183C4089,6980,3960,6993,3910,6984z"/>
</g>
</svg>
