<?xml version="1.0" encoding="utf-8"?>
<!-- Generator: Adobe Illustrator 24.0.1, SVG Export Plug-In . SVG Version: 6.00 Build 0)  -->
<svg version="1.1" id="Layer_1" xmlns="http://www.w3.org/2000/svg" xmlns:xlink="http://www.w3.org/1999/xlink" x="0px" y="0px"
	 viewBox="0 0 595.3 841.9" style="enable-background:new 0 0 595.3 841.9;" xml:space="preserve">
<style type="text/css">
	.st0{fill:#FFFFFF;}
	.st1{fill:none;}
</style>
<image style="overflow:visible;" width="3840" height="2160" xlink:href="main-black-dog.jpg"  transform="matrix(0.75 0 0 0.75 -1074.5957 -362.557)">
</image>
<g>
	<g>
		<path class="st0" d="M-913.2-12.9h11.4v4.7h-1l-10.3-1.3V-12.9z M-913.2,41.3l9-1.3h1.7l8.4,1.3v3.4h-19.2V41.3z M-905.5-12.9h3.6
			l0.8,25.6v32h-4.4V-12.9z M-905.4-12.9h7.7l21.1,51.6h-2.9l20-51.6h4.6l-22.4,57.6h-4.2L-905.4-12.9z M-866.2,41.3l10.3-1.3h1.7
			l11.2,1.3v3.4h-23.2V41.3z M-858.7,18v-31h7.8c-0.3,8.7-0.3,17.6-0.3,26.7V18c0,8.9,0,17.8,0.3,26.7h-8.1
			C-858.7,36-858.7,27.1-858.7,18z M-855-12.9h12v3.4l-11.2,1.3h-0.9V-12.9z"/>
		<path class="st0" d="M-821,22.2c3.6-1.3,9-2.8,13.3-3.6v3.1c-3.9,0.8-8.9,2.4-11.5,3.4c-7.7,3-8.6,6.3-8.6,8.8c0,4.6,3,6.4,7,6.4
			c3,0,4.7-1.1,10.1-5l1.7-1.3l1.2,1.8l-2.5,2.5c-5.2,5.2-8.1,7.6-13.3,7.6c-6.3,0-11.5-3.6-11.5-10.8
			C-835.1,30.3-832.5,26.4-821,22.2z M-811.1,36.8V17.2c0-8.4-2.4-10.5-8.1-10.5c-2,0-4.6,0.3-7.7,1.5l3.4-2.7l-2.2,7.4
			c-0.8,2.5-2.1,3.9-4.4,3.9s-3.7-1.3-3.9-3.4c1.6-6.5,8-10.6,16.6-10.6c8.9,0,13.2,4,13.2,14.9v18.2c0,3.9,1.2,5.2,3.2,5.2
			c1.5,0,2.4-0.8,3.4-1.9l1.7,1.9c-2.1,3.3-4.4,4.4-7.3,4.4C-808,45.6-811.1,42.1-811.1,36.8z"/>
		<path class="st0" d="M-780.1-18.9l1.2,0.7L-779.2-6v32.7c0,6,0.1,12,0.3,18.1h-7.4c0.2-6,0.3-12,0.3-18.1v-37.8l-7.1-0.9v-3
			L-780.1-18.9z M-772.1,41.7v3h-21.2v-3l9.7-1.7h1.7L-772.1,41.7z M-754.5,3.9l-28.1,28.9v-5l22.9-23.9H-754.5z M-758.1,40l9.5,1.7
			v3h-11.4l-14.4-22.9l4.8-5l16.9,26.5L-758.1,40z M-763,9.2l-7.8-2V3.9h20v3.3l-9.5,1.5L-763,9.2z"/>
		<path class="st0" d="M-739,44.7c0.2-3.9,0.3-12.7,0.3-18.1v-4c0-4.7-0.1-7.4-0.3-10.8l-7.1-0.8V8l13-5.2l1.3,0.9l-0.3,11.6v11.4
			c0,5.3,0.1,14.2,0.3,18.1H-739z M-725.8,41.7v3h-19.8v-3l9.5-1.7h1.7L-725.8,41.7z M-741.2-12.3c0-3.3,2.5-5.4,5.7-5.4
			s5.7,2.1,5.7,5.4c0,3.2-2.5,5.4-5.7,5.4S-741.2-9.1-741.2-12.3z"/>
		<path class="st0" d="M-713.2,44.7c0.2-3.9,0.3-12.7,0.3-18.1v-4c0-4.7-0.1-7.4-0.3-10.8L-720,11V8l11.7-5.2l1.3,0.9l1,10v13
			c0,5.3,0.1,14.2,0.3,18.1H-713.2z M-699.7,41.7v3h-19.8v-3l9.5-1.7h1.7L-699.7,41.7z M-679.9,18.7v7.9c0,5.5,0.1,14.2,0.3,18.1
			h-7.4c0.2-3.9,0.3-12.6,0.3-18.1v-7.2c0-8-2.1-10.6-7.2-10.6c-4.3,0-7.8,1.7-12.7,5.9h-1.8v-3.9h4.4l-3.7,1.5
			c4-5.4,10.9-9.6,17-9.6C-683.4,2.8-679.9,7.4-679.9,18.7z M-682.2,40l8.6,1.7v3h-19.8v-3l9.5-1.7H-682.2z"/>
		<path class="st0" d="M-635.2,52.6c0-3.9-2.4-6.8-8.7-6.8h-10.1c-1.5,0-3-0.1-4.3-0.3v-0.3c-4.4-0.9-6.6-3.2-6.6-6.8
			c0-3,2-6.3,7.8-11.4l1.9,1.3c-2.6,2.8-3.7,4.6-3.7,7.2c0,2.3,0.9,3.9,5,3.9h11.4c9.2,0,13.6,4,13.6,11c0,7.4-7.1,14.8-21,14.8
			c-12.4,0-17.8-4.3-17.8-10.5c0-4.2,2.7-7.4,11.4-11.1l0.4,0.5c-3.4,3.4-4.8,5.9-4.8,9.3c0,5.7,4.4,7.9,11.1,7.9
			C-640.3,61.5-635.2,57.5-635.2,52.6z M-650.4,2.8c8.8,0,15.3,4.6,15.3,14.1c0,9.1-6.7,14.1-15.4,14.1c-8.9,0-15.4-4.6-15.4-14.1
			C-665.9,7.8-659.2,2.8-650.4,2.8z M-659.2,17c0,6.3,3.1,10.6,8.4,10.6c5.6,0,8.9-4.6,8.9-10.9c0-6.1-3.1-10.4-8.5-10.4
			C-655.8,6.3-659.2,10.7-659.2,17z M-629.9,2.8l1.3,0.9V9h-12.6V6.7L-629.9,2.8z"/>
		<path class="st0" d="M-596.6,44.7c0.2-3.9,0.3-12.7,0.3-18.1v-4c0-4.7-0.1-7.4-0.3-10.8l-6.9-0.8V8l11.7-5.2l1.3,0.9l1,10v13
			c0,5.3,0.1,14.2,0.3,18.1H-596.6z M-583.2,41.7v3H-603v-3l9.5-1.7h1.7L-583.2,41.7z M-563.4,18.7v7.9c0,5.5,0.1,14.2,0.3,18.1
			h-7.4c0.2-3.9,0.3-12.6,0.3-18.1v-7.2c0-8-2.1-10.6-7.2-10.6c-4.3,0-7.8,1.7-12.7,5.9h-1.8v-3.9h4.4l-3.7,1.5
			c4-5.4,10.9-9.6,17-9.6C-566.9,2.8-563.4,7.4-563.4,18.7z M-565.7,40l8.6,1.7v3h-19.8v-3l9.5-1.7H-565.7z"/>
		<path class="st0" d="M-515,19.2c0,2-0.3,3.7-0.6,4.8h-31.7v-3.6h20.5c4.1,0,5.1-2,5.1-4.4c0-4.9-4.1-9.4-9.5-9.4
			c-5.5,0-11.9,4.6-11.9,16.9c0,10.9,5.5,16.8,14.1,16.8c5.5,0,8.9-2.5,12-6.1l2,1.5c-3.1,6.1-8.6,10-16.4,10c-11.5,0-19-8-19-21.1
			c0-13.2,8.9-21.9,19.6-21.9C-522.1,2.8-515,8.8-515,19.2z"/>
		<path class="st0" d="M-502.3,8.7l-8.4-1.5V3.9h19.4v3.3l-9.3,1.5H-502.3z M-475.1,3.9l12.7,33.6h-1.9L-454,3.9h4.8l-14,41.3h-3
			c-8.3-21.3-10.6-28.3-12.7-35.1h3.1l-13.1,35.1h-3l-15.4-41.3h7.7l11.4,33.6h-1.9l12.3-33.6H-475.1z M-485.8,7.2V3.9h18.9v3.3
			l-8.2,1.5h-1.7L-485.8,7.2z M-453.8,8.7l-8-1.5V3.9h15.7v3.3l-6,1.5H-453.8z"/>
		<path class="st0" d="M-422.5,41.7l9.3-1.7l-2.8,4.7c0.2-3.9,0.3-12.7,0.3-18.1v-37.8l-7.1-0.9v-3l12.9-3.9l1.2,0.7L-409.2-6v16.5
			l0.3,1.1v26.3l-0.9,7.7l-12.7-0.9V41.7z M-386.9,24.7c0-11.1-4.6-17.1-11.1-17.1c-3.1,0-7.3,1.4-13.6,7.7l-0.8-1.5
			c5-7.6,10.6-10.8,16.4-10.8c9.1,0,16.3,7.8,16.3,21.1s-7.6,21.9-17.6,21.9c-5.2,0-10.6-2.3-15.1-11.3l0.8-1.4
			c4.5,5.7,9.1,7.9,13.2,7.9C-392.2,41.1-386.9,35.8-386.9,24.7z"/>
		<path class="st0" d="M-336.1,19.2c0,2-0.3,3.7-0.6,4.8h-31.7v-3.6h20.5c4.1,0,5.1-2,5.1-4.4c0-4.9-4.1-9.4-9.5-9.4
			c-5.5,0-11.9,4.6-11.9,16.9c0,10.9,5.5,16.8,14.1,16.8c5.5,0,8.9-2.5,12-6.1l2,1.5c-3.1,6.1-8.6,10-16.4,10c-11.5,0-19-8-19-21.1
			c0-13.2,8.9-21.9,19.6-21.9C-343.2,2.8-336.1,8.8-336.1,19.2z"/>
		<path class="st0" d="M-327.4,42.5l-0.3-9.4h4.6l2.3,10.1l-4.2-2v-2.9c3,2.3,6.3,3.5,10.6,3.5c6.6,0,9.7-2.7,9.7-6.6
			c0-3.7-2.6-5.6-8-7.6l-4-1.5c-6.3-2.3-10.4-5.7-10.4-11.5c0-6.2,5.2-12,14.8-12c4.6,0,8.3,1.3,12,3.5l-0.3,8.7h-4.3l-1.7-8.7
			l3.1,1.4V10c-2.8-2.1-5.7-3.3-8.8-3.3c-5.3,0-8.1,2.3-8.1,5.9c0,3.9,2.2,5.3,8,7.5l2.6,0.9c8.6,3.2,11.9,7.2,11.9,12.6
			c0,6.4-5.6,12.2-16.6,12.2C-319.5,45.8-323.2,44.7-327.4,42.5z"/>
		<path class="st0" d="M-274.9,41.5c1.9,0,3.6-0.8,5.8-2.4l2,2.3c-2.1,2.8-5.7,4.4-10,4.4c-5.9,0-9.6-3.1-9.6-9.7
			c0-2.1,0.1-3.9,0.1-7.2V8.4h-7.2V4.7l10.7-1.4l-3.4,2.8l2.6-13.9h5l-0.7,15v27.9C-279.7,39.6-277.8,41.5-274.9,41.5z M-267.9,3.9
			v4.5h-15.3V3.9H-267.9z"/>
		<path class="st0" d="M-236.5,8.4h-7.2V4.7l9.7-1.3l-2.5,1.3c0.9-9.9,2.2-15.1,6.1-19.3c3.7-4,8.1-5.2,12-5.2c4,0,7.3,1.3,8.2,4.6
			c-0.2,2.1-2.1,3.8-5.2,3.8c-2.1,0-4-0.9-6.1-2.4l-4.2-3.2l7.2-1.7l2,2.6c-0.9-0.5-2.3-1-3.4-1c-2.6,0-5.5,1.9-7.1,4.8
			c-2,3.4-3.3,9.2-2.6,19.7v19.3c0,6,0.1,12,0.3,18.1h-7.4c0.2-6,0.3-12,0.3-18.1V8.4z M-221.6,41.7v3h-22v-3l9.7-1.7h1.7
			L-221.6,41.7z M-217.7,3.9v4.5H-233V3.9H-217.7z"/>
		<path class="st0" d="M-206.1,26.6v-4c0-4.7-0.1-7.4-0.3-10.8l-6.9-0.8V8l11.7-5.2l1.3,0.9l1,10.8v12.2c0,5.3,0.1,14.2,0.3,18.1
			h-7.4C-206.2,40.8-206.1,32-206.1,26.6z M-212.6,41.7l9.5-1.7h1.7l9.5,1.7v3h-20.6V41.7z M-202.7,15h4.9l-2.1,0.6
			c2.8-8,8-12.8,13.1-12.8c2.5,0,5.1,1.2,6.1,2.9c0,4-1.5,6.3-5,6.3c-2,0-3.6-0.8-5.2-2.1l-2.3-2l4.2-0.9
			c-5.3,2.8-8.4,7.1-10.4,13.7h-3.3V15z"/>
		<path class="st0" d="M-170.6,44.7c0.2-3.9,0.3-12.7,0.3-18.1v-4c0-4.7-0.1-7.4-0.3-10.8l-7.1-0.8V8l13-5.2l1.3,0.9l-0.3,11.6v11.4
			c0,5.3,0.1,14.2,0.3,18.1H-170.6z M-157.4,41.7v3h-19.8v-3l9.5-1.7h1.7L-157.4,41.7z M-172.7-12.3c0-3.3,2.5-5.4,5.7-5.4
			s5.7,2.1,5.7,5.4c0,3.2-2.5,5.4-5.7,5.4S-172.7-9.1-172.7-12.3z"/>
		<path class="st0" d="M-115.1,19.2c0,2-0.3,3.7-0.6,4.8h-31.7v-3.6h20.5c4.1,0,5.1-2,5.1-4.4c0-4.9-4.1-9.4-9.5-9.4
			c-5.5,0-11.9,4.6-11.9,16.9c0,10.9,5.5,16.8,14.1,16.8c5.5,0,8.9-2.5,12-6.1l2,1.5c-3.1,6.1-8.6,10-16.4,10c-11.5,0-19-8-19-21.1
			c0-13.2,8.9-21.9,19.6-21.9C-122.2,2.8-115.1,8.8-115.1,19.2z"/>
		<path class="st0" d="M-100.9,44.7c0.2-3.9,0.3-12.7,0.3-18.1v-4c0-4.7-0.1-7.4-0.3-10.8l-6.9-0.8V8l11.7-5.2l1.3,0.9l1,10v13
			c0,5.3,0.1,14.2,0.3,18.1H-100.9z M-87.5,41.7v3h-19.8v-3l9.5-1.7h1.7L-87.5,41.7z M-67.7,18.7v7.9c0,5.5,0.1,14.2,0.3,18.1h-7.4
			c0.2-3.9,0.3-12.6,0.3-18.1v-7.2c0-8-2.1-10.6-7.2-10.6c-4.3,0-7.8,1.7-12.7,5.9h-1.8v-3.9h4.4l-3.7,1.5c4-5.4,10.9-9.6,17-9.6
			C-71.2,2.8-67.7,7.4-67.7,18.7z M-70,40l8.6,1.7v3h-19.8v-3l9.5-1.7H-70z"/>
		<path class="st0" d="M-35.4,41.1c4.4,0,7.4-1.9,11.4-7l0.8,2.3c-3.3,5.8-7.3,9.4-14,9.4c-10.5,0-17.5-8.7-17.5-21.2
			c0-13.1,7.7-21.8,18.3-21.8c4.9,0,9.1,2,13.6,8.7l-0.9,2.2c-5-4.8-8.4-6.2-11.7-6.2c-6.4,0-12,5.2-12,16.9
			C-47.5,35.9-42.4,41.1-35.4,41.1z M-11.5,41.7v3l-13.2,0.9l-0.9-8.8V11.6l0.3-1.1v-21.7l-7.4-0.9v-3l13.2-3.9l1.2,0.7L-18.6-6
			v50.7l-1.4-4.4L-11.5,41.7z"/>
		<path class="st0" d="M-5.7,42.5l-0.3-9.4h4.6l2.3,10.1l-4.2-2v-2.9c3,2.3,6.3,3.5,10.6,3.5c6.6,0,9.7-2.7,9.7-6.6
			c0-3.7-2.6-5.6-8-7.6l-4-1.5C-1.4,24-5.5,20.6-5.5,14.8c0-6.2,5.2-12,14.8-12c4.6,0,8.3,1.3,12,3.5L20.9,15h-4.3l-1.7-8.7L18,7.7
			V10c-2.8-2.1-5.7-3.3-8.8-3.3c-5.3,0-8.1,2.3-8.1,5.9c0,3.9,2.1,5.3,8,7.5l2.6,0.9c8.6,3.2,11.9,7.2,11.9,12.6
			C23.6,40,18,45.8,7,45.8C2.2,45.8-1.5,44.7-5.7,42.5z"/>
		<path class="st0" d="M-912.2,145.7l-0.3-9.4h4.6l2.3,10.1l-4.2-2v-2.9c3,2.3,6.3,3.5,10.6,3.5c6.6,0,9.7-2.7,9.7-6.6
			c0-3.7-2.6-5.6-8-7.6l-4-1.5c-6.3-2.3-10.4-5.7-10.4-11.5c0-6.2,5.2-12,14.8-12c4.6,0,8.3,1.3,12,3.5l-0.3,8.7h-4.3l-1.7-8.7
			l3.1,1.4v2.2c-2.8-2.1-5.7-3.3-8.8-3.3c-5.3,0-8.1,2.3-8.1,5.9c0,3.9,2.1,5.3,8,7.5l2.6,0.9c8.6,3.2,11.9,7.2,11.9,12.6
			c0,6.4-5.6,12.2-16.6,12.2C-904.3,149-908,147.9-912.2,145.7z"/>
		<path class="st0" d="M-869.9,147.9c0.2-3.9,0.3-12.7,0.3-18.1v-4c0-4.7-0.1-7.4-0.3-10.8l-7.1-0.8v-3l13-5.2l1.3,0.9l-0.3,11.6
			v11.4c0,5.3,0.1,14.2,0.3,18.1H-869.9z M-856.6,144.9v3h-19.8v-3l9.5-1.7h1.7L-856.6,144.9z M-872,90.9c0-3.3,2.5-5.4,5.7-5.4
			s5.7,2.1,5.7,5.4c0,3.2-2.5,5.4-5.7,5.4S-872,94.1-872,90.9z"/>
		<path class="st0" d="M-844,147.9c0.2-3.9,0.3-12.7,0.3-18.1v-4c0-4.7-0.1-7.4-0.3-10.8l-6.9-0.8v-3l11.7-5.2l1.3,0.9l1,10v13
			c0,5.3,0.1,14.2,0.3,18.1H-844z M-830.6,144.9v3h-19.8v-3l9.5-1.7h1.7L-830.6,144.9z M-810.7,121.9v7.9c0,5.5,0.1,14.2,0.3,18.1
			h-7.4c0.2-3.9,0.3-12.6,0.3-18.1v-7.2c0-8-2.1-10.6-7.2-10.6c-4.3,0-7.8,1.7-12.7,5.9h-1.8v-3.9h4.4l-3.7,1.5
			c4-5.4,10.9-9.6,17-9.6C-814.2,106-810.7,110.6-810.7,121.9z M-813,143.2l8.6,1.7v3h-19.8v-3l9.5-1.7H-813z"/>
		<path class="st0" d="M-791,126.8c0,10.8,5.8,16.8,13.8,16.8c5,0,9.4-2.4,12-6.7l2.1,1c-2.3,7.1-7.8,11.1-15.9,11.1
			c-11.8,0-19.2-8.3-19.2-21.4c0-13.5,9.5-21.6,19.7-21.6c7.7,0,14,4.7,15.1,11.1c-0.4,2.1-1.7,3.2-3.9,3.2c-2.8,0-4-1.7-4.6-3.9
			l-2.1-7.6l4,3.2c-2.9-1.5-5.8-2.1-8.3-2.1C-785.7,109.9-791,115.8-791,126.8z"/>
		<path class="st0" d="M-720.6,122.4c0,2-0.3,3.7-0.6,4.8h-31.7v-3.6h20.5c4.1,0,5.1-2,5.1-4.4c0-4.9-4.1-9.4-9.5-9.4
			c-5.5,0-11.9,4.6-11.9,16.9c0,10.9,5.5,16.8,14.1,16.8c5.5,0,8.9-2.5,12-6.1l2,1.5c-3.1,6.1-8.6,10-16.4,10c-11.5,0-19-8-19-21.1
			c0-13.2,8.9-21.9,19.6-21.9C-727.6,106-720.6,112-720.6,122.4z"/>
		<path class="st0" d="M-658,144.9v3h-31.7v-3l12.4-2.1h6.9L-658,144.9z M-671.4,91.6l1.2,0.9l-0.3,12.3v25c0,6,0.1,12.1,0.3,18.1
			h-7.4c0.2-6,0.3-12.1,0.3-18.1V98.6l-11.5,0.9v-3.4L-671.4,91.6z"/>
		<path class="st0" d="M-632.1,120.6c5.1,0,8.7-1.9,12.1-6.1l1.5,0.6c-3.2,7.2-8.7,10.7-15.7,10.7c-9.1,0-16.7-6.4-16.7-16.9
			c0-10.7,7.4-17.8,18.2-17.8c11.1,0,17.7,8.7,17.7,22.4c0,16.3-8.7,30.9-31,36.1l-0.9-3.2c18.3-6,24.5-15.7,24.5-31.4
			c0-13.9-4.3-20-10.7-20c-5.7,0-10.5,4.5-10.5,13.2C-643.6,117-638.5,120.6-632.1,120.6z"/>
		<path class="st0" d="M-589.3,120.6c5.1,0,8.7-1.9,12.1-6.1l1.5,0.6c-3.2,7.2-8.7,10.7-15.7,10.7c-9.1,0-16.7-6.4-16.7-16.9
			c0-10.7,7.4-17.8,18.2-17.8c11.1,0,17.7,8.7,17.7,22.4c0,16.3-8.7,30.9-31,36.1l-0.9-3.2c18.3-6,24.5-15.7,24.5-31.4
			c0-13.9-4.3-20-10.7-20c-5.7,0-10.5,4.5-10.5,13.2C-600.9,117-595.8,120.6-589.3,120.6z"/>
		<path class="st0" d="M-565.8,131v-4.3l25.6-35.1h4.7v56.3h-6.9V97.1h2.4l-21.7,30l-0.1-1.3h35.3v5.2H-565.8z"/>
		<path class="st0" d="M-518.3,143c0-3.4,2.7-6.1,6-6.1s6,2.8,6,6.1c0,3.3-2.7,6-6,6S-518.3,146.3-518.3,143z"/>
	</g>
</g>
<rect x="-420.3" y="114.1" class="st1" width="757.8" height="600.5"/>
<g>
	<g>
		<path class="st0" d="M-922.5,286.3v-2h7.1v2.8h-0.5L-922.5,286.3z M-915.4,315.6v2.8h-7.1v-2l6.6-0.8H-915.4z M-917.7,300
			c0-5.3,0-10.6-0.2-15.8h4.9c-0.2,5.2-0.2,10.5-0.2,15.8v1.8c0,6,0,11.3,0.2,16.6h-4.9c0.2-5.2,0.2-10.5,0.2-15.8V300z
			 M-915.4,299.6h5c6.3,0,9-2,9-6.7s-2.7-6.3-8-6.3h-6.1v-2.3h7.5c7,0,11.1,3.5,11.1,8.4c0,4-2.8,7.5-9.5,8.3v-0.5
			c8,0.7,11.2,4.2,11.2,8.6c0,4.6-3.8,9.3-13.5,9.3h-6.8v-2.3h5.6c6.6,0,9.8-2.5,9.8-7c0-4.7-3.1-7.1-10.2-7.1h-5.2V299.6z"/>
		<path class="st0" d="M-886.8,307.7v-2.4c0-2.8-0.1-4.4-0.2-6.4l-4.1-0.5v-1.8l6.9-3.1l0.8,0.5l0.6,6.4v7.2c0,3.2,0.1,8.4,0.2,10.7
			h-4.4C-886.8,316.1-886.8,310.9-886.8,307.7z M-890.6,316.6l5.6-1h1l5.6,1v1.8h-12.2V316.6z M-884.7,300.8h2.9l-1.3,0.4
			c1.6-4.7,4.7-7.6,7.8-7.6c1.5,0,3,0.7,3.6,1.7c0,2.4-0.9,3.7-3,3.7c-1.2,0-2.1-0.5-3.1-1.2l-1.4-1.2l2.5-0.5
			c-3.2,1.6-5,4.2-6.2,8.1h-1.9V300.8z"/>
		<path class="st0" d="M-865.7,318.4c0.1-2.3,0.2-7.5,0.2-10.7v-2.4c0-2.8-0.1-4.4-0.2-6.4l-4.2-0.5v-1.8l7.7-3.1l0.8,0.5l-0.2,6.9
			v6.7c0,3.2,0.1,8.4,0.2,10.7H-865.7z M-857.8,316.6v1.8h-11.7v-1.8l5.6-1h1L-857.8,316.6z M-867,284.6c0-1.9,1.5-3.2,3.4-3.2
			c1.9,0,3.4,1.3,3.4,3.2c0,1.9-1.5,3.2-3.4,3.2C-865.5,287.8-867,286.5-867,284.6z"/>
		<path class="st0" d="M-850.4,318.4c0.1-2.3,0.2-7.5,0.2-10.7v-2.4c0-2.8-0.1-4.4-0.2-6.4l-4.1-0.5v-1.8l6.9-3.1l0.8,0.5l0.6,5.9
			v7.7c0,3.2,0.1,8.4,0.2,10.7H-850.4z M-842.4,316.6v1.8h-11.7v-1.8l5.6-1h1L-842.4,316.6z M-830.6,303v4.7c0,3.3,0.1,8.4,0.2,10.7
			h-4.4c0.1-2.3,0.2-7.4,0.2-10.7v-4.3c0-4.7-1.2-6.3-4.3-6.3c-2.5,0-4.6,1-7.5,3.5h-1.1v-2.3h2.6l-2.2,0.9
			c2.4-3.2,6.5-5.7,10.1-5.7C-832.7,293.6-830.6,296.3-830.6,303z M-832,315.6l5.1,1v1.8h-11.7v-1.8l5.6-1H-832z"/>
		<path class="st0" d="M-804.1,323.1c0-2.3-1.4-4-5.2-4h-6c-0.9,0-1.8-0.1-2.5-0.2v-0.2c-2.6-0.6-3.9-1.9-3.9-4
			c0-1.8,1.2-3.7,4.6-6.7l1.1,0.8c-1.5,1.6-2.2,2.8-2.2,4.3c0,1.4,0.6,2.3,3,2.3h6.7c5.5,0,8.1,2.4,8.1,6.5c0,4.4-4.2,8.8-12.4,8.8
			c-7.3,0-10.6-2.5-10.6-6.2c0-2.5,1.6-4.4,6.7-6.6l0.3,0.3c-2,2-2.9,3.5-2.9,5.5c0,3.4,2.6,4.7,6.6,4.7
			C-807.2,328.3-804.1,326-804.1,323.1z M-813.1,293.6c5.2,0,9.1,2.8,9.1,8.4c0,5.4-4,8.4-9.1,8.4c-5.3,0-9.1-2.8-9.1-8.4
			C-822.3,296.5-818.3,293.6-813.1,293.6z M-818.3,302c0,3.7,1.8,6.3,5,6.3c3.3,0,5.3-2.7,5.3-6.5c0-3.6-1.8-6.2-5-6.2
			C-816.3,295.6-818.3,298.3-818.3,302z M-801,293.6l0.8,0.5v3.2h-7.5v-1.4L-801,293.6z"/>
		<path class="st0" d="M-784.8,286.3v-2h14.3v2l-6.6,0.8h-1L-784.8,286.3z M-777.2,315.6l6.6,0.8v2h-14.3v-2l6.6-0.8H-777.2z
			 M-780,300c0-5.3,0-10.6-0.2-15.8h4.9c-0.2,5.2-0.2,10.5-0.2,15.8v1.5c0,6.3,0,11.6,0.2,16.8h-4.9c0.2-5.2,0.2-10.5,0.2-15.8V300z
			 M-777.7,302.1v-2.3h21.4v2.3H-777.7z M-763.4,286.3v-2h14.3v2l-6.6,0.8h-1L-763.4,286.3z M-755.7,315.6l6.6,0.8v2h-14.3v-2
			l6.6-0.8H-755.7z M-758.6,300c0-5.3,0-10.6-0.2-15.8h4.9c-0.2,5.2-0.2,10.5-0.2,15.8v2.5c0,5.3,0,10.6,0.2,15.8h-4.9
			c0.2-5.2,0.2-10.5,0.2-16.8V300z"/>
		<path class="st0" d="M-744.5,306.4c0-8.5,5.8-12.9,11.6-12.9c5.8,0,11.6,4.4,11.6,12.9c0,8.5-5.9,12.6-11.6,12.6
			C-738.7,319.1-744.5,314.9-744.5,306.4z M-725.8,306.4c0-6.8-2.6-10.6-7-10.6c-4.5,0-7,3.7-7,10.6c0,6.8,2.5,10.4,7,10.4
			C-728.4,316.8-725.8,313.3-725.8,306.4z"/>
		<path class="st0" d="M-713,318.4c0.1-2.3,0.2-7.5,0.2-10.7v-2.4c0-2.8-0.1-4.4-0.2-6.4l-4.1-0.5v-1.8l6.9-3.1l0.8,0.5l0.6,5.9v7.7
			c0,3.2,0.1,8.4,0.2,10.7H-713z M-705.1,316.6v1.8h-11.7v-1.8l5.6-1h1L-705.1,316.6z M-693.5,303v4.7c0,3.3,0.1,8.4,0.2,10.7h-4.4
			c0.1-2.3,0.2-7.4,0.2-10.7v-4.3c0-4.7-1.2-6.3-4.3-6.3c-2.5,0-4.5,1-7.3,3.5h-1.1v-2.3h2.6l-2.2,0.9c2.4-3.2,6.3-5.7,9.9-5.7
			C-695.6,293.6-693.5,296.3-693.5,303z M-694.9,315.6l5.1,1v1.8h-11.7v-1.8l5.6-1H-694.9z M-678.2,302.4v5.3
			c0,3.3,0.1,8.4,0.2,10.7h-4.4c0.1-2.3,0.2-7.4,0.2-10.7v-4.4c0-4.8-1.3-6.2-4.3-6.2c-2.3,0-4.4,0.9-7.3,3.5h-1.2v-1.8h2.8
			l-2.3,0.4c2.7-3.8,6.4-5.7,10-5.7C-680.6,293.6-678.2,296.1-678.2,302.4z M-679.6,315.6l5.1,1v1.8h-11.7v-1.8l5.6-1H-679.6z"/>
		<path class="st0" d="M-649.5,303.3c0,1.2-0.2,2.2-0.4,2.9h-18.8V304h12.1c2.4,0,3-1.2,3-2.6c0-2.9-2.4-5.6-5.7-5.6
			c-3.3,0-7,2.8-7,10c0,6.5,3.3,9.9,8.4,9.9c3.3,0,5.3-1.5,7.1-3.6l1.2,0.9c-1.8,3.6-5.1,5.9-9.7,5.9c-6.8,0-11.3-4.7-11.3-12.5
			c0-7.8,5.3-13,11.6-13C-653.7,293.6-649.5,297.1-649.5,303.3z"/>
		<path class="st0" d="M-624.3,305c2.1-0.8,5.4-1.7,7.9-2.1v1.8c-2.3,0.5-5.3,1.4-6.8,2c-4.6,1.8-5.1,3.7-5.1,5.2
			c0,2.7,1.8,3.8,4.1,3.8c1.8,0,2.8-0.7,6-3l1-0.8l0.7,1.1l-1.5,1.5c-3.1,3.1-4.8,4.5-7.9,4.5c-3.7,0-6.8-2.1-6.8-6.4
			C-632.7,309.8-631.2,307.5-624.3,305z M-618.5,313.7v-11.6c0-5-1.4-6.2-4.8-6.2c-1.2,0-2.7,0.2-4.6,0.9l2-1.6l-1.3,4.4
			c-0.5,1.5-1.2,2.3-2.6,2.3c-1.4,0-2.2-0.8-2.3-2c1-3.9,4.7-6.3,9.8-6.3c5.3,0,7.8,2.4,7.8,8.8v10.8c0,2.3,0.7,3.1,1.9,3.1
			c0.9,0,1.4-0.5,2-1.1l1,1.1c-1.2,1.9-2.6,2.6-4.3,2.6C-616.6,318.9-618.5,316.9-618.5,313.7z"/>
		<path class="st0" d="M-595.1,316.4l5.4-0.8h1l5.9,0.8v2h-12.2V316.4z M-591.9,285.8l3.2,1.2l-6.1-0.8v-2h7.6l21.2,29.1v5.4h-1.6
			L-591.9,285.8z M-590.8,284.2l2.5,2v32.1h-2.5V284.2z M-574,284.2h12.2v2l-5.1,0.8h-1l-6.1-0.8V284.2z M-568.6,284.2h2.5v34.5
			l-2.5-2.5V284.2z"/>
		<path class="st0" d="M-536.3,303.3c0,1.2-0.2,2.2-0.4,2.9h-18.8V304h12.1c2.4,0,3-1.2,3-2.6c0-2.9-2.4-5.6-5.7-5.6
			c-3.3,0-7,2.8-7,10c0,6.5,3.3,9.9,8.4,9.9c3.3,0,5.3-1.5,7.1-3.6l1.2,0.9c-1.8,3.6-5.1,5.9-9.7,5.9c-6.8,0-11.3-4.7-11.3-12.5
			c0-7.8,5.3-13,11.6-13C-540.5,293.6-536.3,297.1-536.3,303.3z"/>
		<path class="st0" d="M-528.7,297l-5-0.9v-1.9h11.5v1.9l-5.5,0.9H-528.7z M-512.6,294.2l7.5,19.9h-1.1l6.1-19.9h2.9l-8.3,24.5h-1.8
			c-4.9-12.6-6.3-16.8-7.5-20.8h1.8l-7.8,20.8h-1.8l-9.1-24.5h4.6l6.8,19.9h-1.1l7.3-19.9H-512.6z M-519,296.2v-1.9h11.2v1.9
			l-4.8,0.9h-1L-519,296.2z M-500,297l-4.7-0.9v-1.9h9.3v1.9l-3.6,0.9H-500z"/>
		<path class="st0" d="M-480.7,286.3v-2h7.1v2.8h-0.5L-480.7,286.3z M-473,315.6l6.6,0.8v2h-14.3v-2l6.6-0.8H-473z M-475.8,300
			c0-5.3,0-10.6-0.2-15.8h4.9c-0.2,5.3-0.2,10.3-0.2,16.3v1.5c0,5.8,0,11.1,0.2,16.3h-4.9c0.2-5.2,0.2-10.5,0.2-15.8V300z
			 M-473.5,300.3h6.4c5.5,0,8.2-3,8.2-7.1c0-4.3-2.3-6.6-7.6-6.6h-6.9v-2.3h7c7.8,0,12.4,3.3,12.4,9c0,4.3-3.4,8.3-10.1,8.8l0.2-0.4
			c3.7,0.4,5.9,2,7.3,6.6l2.5,8.5l-1.6-1l5.3,0.6v2c-0.9,0.3-2.1,0.5-3.7,0.5c-3.2,0-4.5-0.8-5.2-3.2l-2.1-8.3
			c-1-4.1-2.9-4.8-7.1-4.8h-4.8V300.3z"/>
		<path class="st0" d="M-426.4,303.3c0,1.2-0.2,2.2-0.4,2.9h-18.8V304h12.1c2.4,0,3-1.2,3-2.6c0-2.9-2.4-5.6-5.7-5.6
			c-3.3,0-7,2.8-7,10c0,6.5,3.3,9.9,8.4,9.9c3.3,0,5.3-1.5,7.1-3.6l1.2,0.9c-1.8,3.6-5.1,5.9-9.7,5.9c-6.8,0-11.3-4.7-11.3-12.5
			c0-7.8,5.3-13,11.6-13C-430.6,293.6-426.4,297.1-426.4,303.3z"/>
		<path class="st0" d="M-421.2,317.1l-0.2-5.6h2.7l1.4,6l-2.5-1.2v-1.7c1.8,1.4,3.7,2.1,6.3,2.1c3.9,0,5.8-1.6,5.8-3.9
			c0-2.2-1.5-3.3-4.7-4.5l-2.3-0.9c-3.7-1.4-6.2-3.4-6.2-6.8c0-3.7,3.1-7.1,8.8-7.1c2.8,0,4.9,0.8,7.1,2.1l-0.2,5.2h-2.5l-1-5.2
			l1.8,0.8v1.3c-1.6-1.3-3.4-1.9-5.2-1.9c-3.2,0-4.8,1.4-4.8,3.5c0,2.3,1.3,3.2,4.7,4.4l1.5,0.6c5.1,1.9,7,4.3,7,7.4
			c0,3.8-3.3,7.2-9.8,7.2C-416.6,319.1-418.7,318.4-421.2,317.1z"/>
		<path class="st0" d="M-395.4,305.9c0,6.4,3.4,9.9,8.2,9.9c3,0,5.6-1.4,7.1-4l1.2,0.6c-1.4,4.2-4.6,6.6-9.4,6.6
			c-7,0-11.4-4.9-11.4-12.7c0-8,5.6-12.8,11.7-12.8c4.5,0,8.3,2.8,9,6.6c-0.3,1.3-1,1.9-2.3,1.9c-1.7,0-2.3-1-2.7-2.3l-1.3-4.5
			l2.3,1.9c-1.7-0.9-3.5-1.3-4.9-1.3C-392.2,295.9-395.4,299.4-395.4,305.9z"/>
		<path class="st0" d="M-368.2,309.4c0,4.5,1.3,6.1,4.1,6.1c2.6,0,5.3-1.3,7.8-3.8h1.1v2.6h-2.6l1.8-0.8c-2.9,3.9-6.4,5.6-9.7,5.6
			c-4.1,0-6.6-2.4-6.6-9.2l0.2-13.5l1.1,1l-4.7-1v-1.8l7.3-0.7l0.5,0.5l-0.3,7.1V309.4z M-356,318.8l-0.7-6l0.2-16.4l1.1,1l-4.7-1
			v-1.8l7.2-0.7l0.5,0.5l-0.2,7.1v15.2l-1.2-1.2l4.7,1v1.8L-356,318.8z"/>
		<path class="st0" d="M-323.9,303.3c0,1.2-0.2,2.2-0.4,2.9h-18.8V304h12.1c2.4,0,3-1.2,3-2.6c0-2.9-2.4-5.6-5.7-5.6
			c-3.3,0-7,2.8-7,10c0,6.5,3.3,9.9,8.4,9.9c3.3,0,5.3-1.5,7.1-3.6l1.2,0.9c-1.8,3.6-5.1,5.9-9.7,5.9c-6.8,0-11.3-4.7-11.3-12.5
			c0-7.8,5.3-13,11.6-13C-328.1,293.6-323.9,297.1-323.9,303.3z"/>
		<path class="st0" d="M-307.5,316.3c2.6,0,4.4-1.1,6.7-4.1l0.5,1.4c-1.9,3.5-4.3,5.6-8.3,5.6c-6.2,0-10.4-5.2-10.4-12.5
			c0-7.8,4.6-13,10.9-13c2.9,0,5.4,1.2,8.1,5.2l-0.5,1.3c-3-2.9-5-3.7-6.9-3.7c-3.8,0-7.1,3.1-7.1,10
			C-314.7,313.2-311.6,316.3-307.5,316.3z M-293.3,316.6v1.8l-7.8,0.5l-0.5-5.2v-14.9l0.2-0.7v-12.9l-4.4-0.5V283l7.8-2.3l0.7,0.4
			l-0.2,7.2v30.1l-0.8-2.6L-293.3,316.6z"/>
		<path class="st0" d="M-278.3,286.3v-2h7.1v2.8h-0.5L-278.3,286.3z M-271.2,315.6v2.8h-7.1v-2l6.6-0.8H-271.2z M-273.5,300
			c0-5.3,0-10.6-0.2-15.8h4.9c-0.2,5.2-0.2,10.5-0.2,15.8v1.9c0,5.9,0,11.2,0.2,16.4h-4.9c0.2-5.2,0.2-10.5,0.2-16.4V300z
			 M-271.2,316.1h6.6c8,0,12.4-5.4,12.4-14.7c0-9.6-4.4-14.8-11.9-14.8h-7v-2.3h7.9c9.7,0,16.4,6,16.4,17.1c0,11-7.5,17-17.4,17
			h-6.9V316.1z"/>
		<path class="st0" d="M-242.1,306.4c0-8.5,5.8-12.9,11.6-12.9c5.8,0,11.6,4.4,11.6,12.9c0,8.5-5.9,12.6-11.6,12.6
			C-236.3,319.1-242.1,314.9-242.1,306.4z M-223.4,306.4c0-6.8-2.6-10.6-7-10.6c-4.5,0-7,3.7-7,10.6c0,6.8,2.5,10.4,7,10.4
			C-226,316.8-223.4,313.3-223.4,306.4z"/>
		<path class="st0" d="M-195.3,323.1c0-2.3-1.4-4-5.2-4h-6c-0.9,0-1.8-0.1-2.5-0.2v-0.2c-2.6-0.6-3.9-1.9-3.9-4
			c0-1.8,1.2-3.7,4.6-6.7l1.1,0.8c-1.5,1.6-2.2,2.8-2.2,4.3c0,1.4,0.6,2.3,3,2.3h6.7c5.5,0,8.1,2.4,8.1,6.5c0,4.4-4.2,8.8-12.4,8.8
			c-7.3,0-10.6-2.5-10.6-6.2c0-2.5,1.6-4.4,6.7-6.6l0.3,0.3c-2,2-2.9,3.5-2.9,5.5c0,3.4,2.6,4.7,6.6,4.7
			C-198.3,328.3-195.3,326-195.3,323.1z M-204.2,293.6c5.2,0,9.1,2.8,9.1,8.4c0,5.4-4,8.4-9.1,8.4c-5.3,0-9.1-2.8-9.1-8.4
			C-213.4,296.5-209.4,293.6-204.2,293.6z M-209.4,302c0,3.7,1.8,6.3,5,6.3c3.3,0,5.3-2.7,5.3-6.5c0-3.6-1.8-6.2-5-6.2
			C-207.5,295.6-209.4,298.3-209.4,302z M-192.1,293.6l0.8,0.5v3.2h-7.5v-1.4L-192.1,293.6z"/>
	</g>
</g>
</svg>
