<?xml version="1.0" encoding="utf-8"?>
<!-- Generator: Adobe Illustrator 24.0.1, SVG Export Plug-In . SVG Version: 6.00 Build 0)  -->
<svg version="1.1" id="Layer_1" xmlns="http://www.w3.org/2000/svg" xmlns:xlink="http://www.w3.org/1999/xlink" x="0px" y="0px"
	 viewBox="0 0 48 48" style="enable-background:new 0 0 48 48;" xml:space="preserve">
<style type="text/css">
	.st0{fill:#FFFFFF;}
</style>
<path class="st0" d="M24,4C13,4,4,13,4,24s9,20,20,20s20-9,20-20S35,4,24,4z M24,7c9.4,0,17,7.6,17,17c0,8.4-6,15.3-14,16.7V29h3.6
	c0.5,0,0.9-0.4,1-0.9l0.4-3c0-0.3-0.1-0.6-0.2-0.8C31.6,24.1,31.3,24,31,24h-4v-3.5c0-1.1,0.9-2,2-2h2c0.6,0,1-0.4,1-1v-3.4
	c0-0.5-0.4-1-0.9-1c-0.1,0-1.5-0.1-3.3-0.1c-4.4,0-6.8,2.6-6.8,7.4V24h-4c-0.6,0-1,0.4-1,1v3c0,0.6,0.4,1,1,1h4v11.7
	C13,39.3,7,32.4,7,24C7,14.6,14.6,7,24,7z"/>
</svg>
