<?xml version="1.0" encoding="utf-8"?>
<!-- Generator: Adobe Illustrator 24.0.1, SVG Export Plug-In . SVG Version: 6.00 Build 0)  -->
<svg version="1.1" id="Layer_1" xmlns="http://www.w3.org/2000/svg" xmlns:xlink="http://www.w3.org/1999/xlink" x="0px" y="0px"
	 viewBox="0 0 1280 1280" style="enable-background:new 0 0 1280 1280;" xml:space="preserve">
<style type="text/css">
	.st0{fill:#FFFFFF;}
	.st1{fill:#FFFFFF;stroke:#FFFFFF;stroke-width:24;stroke-miterlimit:10;}
	.st2{fill:none;}
	.st3{font-family:'ArialMT';}
	.st4{font-size:12px;}
</style>
<g transform="translate(0.000000,1280.000000) scale(0.100000,-0.100000)">
	<path class="st0" d="M4964.7,10391c-124.5-24.8-218.5-71.3-325.1-162.3c-86.5-73.2-148.4-147.6-208-248.8
		c-355.7-607-235.6-1608.6,263.2-2182.5c67.9-78.3,185.7-181.3,266.2-232.9c264-169.9,560.7-178.8,798.6-24.2
		c243.8,159.1,410.9,465.8,474.2,871.1c15.7,104.4,18.6,427.6,3.7,534.5c-61.1,446.7-217,816.4-460.8,1095.7
		c-61.1,69.4-181.2,173.7-256.5,222.7c-70.1,45.2-202.8,103.7-272.2,119.6C5186.1,10398.6,5022.8,10402.5,4964.7,10391z"/>
	<path class="st0" d="M7895.9,10262.5c-231.9-38.8-474.3-190.3-674.8-420.6c-258-295.9-432.5-687.2-498.1-1118.6
		c-20.9-137.4-18.6-444.1,3.7-568.9c52.2-284.4,163.3-502.1,329.6-643.3c142.4-122.2,321.4-178.8,503.3-160.4
		c433.2,45.8,860.5,449.2,1088.7,1028.3c189.4,480.4,209.5,986.3,54.4,1371.9C8551.4,10126.9,8244.2,10321.6,7895.9,10262.5z"/>
	<path class="st0" d="M3085.6,8185.5c-305-41.4-534.6-251.3-638.3-584.8c-58.9-191.5-67.1-455.6-20.9-687.9
		c106.6-540.9,473.5-1037.8,907.5-1230c222.2-98,443.7-115.2,633.8-47.7c280.4,99.3,464.6,356.3,525,733.7
		c11.9,75.7,11.9,300.3-0.7,388.2c-96.9,701.2-603.3,1316.5-1166.2,1419C3259.3,8188.1,3141.5,8192.5,3085.6,8185.5z"/>
	<path class="st0" d="M9405.2,7670.1c-268.4-49-531.7-210-750.2-459.4c-237.1-271.1-396.7-624.9-442.9-981.2
		c-11.9-92.9-9.7-292.7,3.7-382.4c91-603.2,571.2-892.7,1114.8-673.9c291.6,117.7,555.5,360.2,744.2,682.8
		c357.9,610.9,334.8,1326.7-54.4,1658.2C9856.3,7654.2,9630.4,7711.5,9405.2,7670.1z"/>
	<path class="st0" d="M6165.2,6538.1C5671.6,6463,5048.9,6020.8,4497.1,5354c-431.7-522.4-736-1084.9-827-1530.3
		c-21.6-106.9-23.9-297.8-4.5-371c30.6-113.9,82-189,181.9-268.5c167-131.7,367.6-209.3,618.9-239.3
		c130.5-15.3,394.5-9.5,562.2,12.1c224.4,29.9,413.9,68.7,838.1,173.1c410.1,100.5,525,121.5,638.3,115.2
		c143.9-8.3,252-38.2,562.2-154.6c222.2-83.4,346-122.8,451.9-145.1c395.2-81.4,727.8,24.8,1070,341.7
		c102.2,94.2,133.5,140,165.5,239.9c17.9,57.3,19.4,70,19.4,204.3c0,121.5-2.2,155.9-17.2,225.9c-88,424.4-349.7,937.3-727.8,1425.3
		C7579.8,5962.9,7051.8,6381,6611.1,6505C6450.8,6550.2,6314.3,6560.4,6165.2,6538.1z"/>
</g>
<ellipse class="st1" cx="634" cy="620.6" rx="437.1" ry="424.9"/>
<path id="SVGID_x5F_1_x5F_" class="st2" d="M1102.3,650.8c0,259.5-209.9,469.8-468.8,469.8S164.8,910.2,164.8,650.8
	S374.6,181,633.5,181S1102.3,391.3,1102.3,650.8z"/>
<text><textPath  xlink:href="#SVGID_x5F_1_x5F_" startOffset="70.9391%">
<tspan  class="st0" style="font-family:'EngraversMT'; font-size:127px;">HOUSE OF HOPE</tspan></textPath>
</text>
<text transform="matrix(1 0 0 1 0 -6.728313e-06)" class="st3 st4"> </text>
</svg>
