<?xml version="1.0" encoding="utf-8"?>
<!-- Generator: Adobe Illustrator 24.0.1, SVG Export Plug-In . SVG Version: 6.00 Build 0)  -->
<svg version="1.1" id="Layer_1" xmlns="http://www.w3.org/2000/svg" xmlns:xlink="http://www.w3.org/1999/xlink" x="0px" y="0px"
	 viewBox="0 0 1280 1280" style="enable-background:new 0 0 1280 1280;" xml:space="preserve">
<style type="text/css">
	.st0{fill:#231F20;stroke:#FFFFFF;stroke-width:22;}
	.st1{font-family:'ArialMT';}
	.st2{font-size:12px;}
	.st3{fill:none;stroke:#000000;stroke-width:1;stroke-miterlimit:9.9998;}
	.st4{font-family:'LucidaCalligraphy-Italic';}
	.st5{font-size:100px;}
	.st6{fill:none;stroke:#000000;stroke-width:1;stroke-miterlimit:9.9999;}
	.st7{fill:#FFFFFF;stroke:#000000;stroke-width:0.1;stroke-miterlimit:1;}
	.st8{fill:none;}
</style>
<path id="SVGID_x5F_1_x5F_" class="st0" d="M858.3,521.8c0,147.2-122.4,266.6-273.4,266.6S311.4,669,311.4,521.8
	s122.4-266.6,273.5-266.6S858.3,374.6,858.3,521.8z"/>
<text transform="matrix(0.9378 0.3472 -0.3472 0.9378 718.592 266.597)" class="st1 st2"> </text>
<text transform="matrix(1 0 0 1 0 -6.728313e-06)" class="st1 st2"> </text>
<text transform="matrix(0.8239 -0.5667 0.5667 0.8239 464.2142 299.4655)" class="st1 st2"> </text>
<text transform="matrix(0.8239 -0.5667 0.5667 0.8239 464.2142 299.4655)" class="st3 st1 st2"> </text>
<text transform="matrix(0.5821 0.8131 -0.8131 0.5821 837.7583 350.5348)" class="st4 st5"> </text>
<text transform="matrix(0.5821 0.8131 -0.8131 0.5821 837.7583 350.5348)" class="st6 st4 st5"> </text>
<text transform="matrix(1 0 0 1 0 -6.728313e-06)" class="st1 st2"> </text>
<text transform="matrix(-6.281956e-03 1 -1 -6.281956e-03 972.004 713.8898)" class="st1 st2"> </text>
<text transform="matrix(1 0 0 1 0 -6.728313e-06)" class="st1 st2"> </text>
<g transform="translate(0.000000,1280.000000) scale(0.100000,-0.100000)">
	<path class="st7" d="M5106.1,9990.1c-67.6-15.6-118.6-44.7-176.5-101.7c-47-45.9-80.6-92.5-113-156
		c-193.2-380.5-128-1008.3,142.9-1368.1c36.8-49.1,100.8-113.7,144.6-146c143.3-106.5,304.5-112.1,433.7-15.2
		c132.4,99.7,223.1,292,257.5,546c8.5,65.4,10.1,268,2,335c-33.2,280-117.8,511.7-250.2,686.8c-33.2,43.5-98.4,108.9-139.3,139.6
		c-38.1,28.3-110.1,65-147.8,75C5226.4,9994.9,5137.7,9997.3,5106.1,9990.1z"/>
	<path class="st7" d="M6697.9,9909.5c-125.9-24.3-257.5-119.3-366.5-263.6c-140.1-185.5-234.9-430.8-270.5-701.2
		c-11.3-86.2-10.1-278.4,2-356.6c28.3-178.3,88.7-314.7,179-403.2c77.3-76.6,174.5-112.1,273.3-100.5
		c235.3,28.7,467.3,281.6,591.2,644.5c102.9,301.1,113.8,618.2,29.6,859.9C7053.9,9824.6,6887,9946.6,6697.9,9909.5z"/>
	<path class="st7" d="M4085.7,8607.7c-165.6-25.9-290.3-157.5-346.6-366.5c-32-120.1-36.4-285.6-11.3-431.2
		c57.9-339,257.1-650.5,492.8-771c120.7-61.4,240.9-72.2,344.2-29.9c152.3,62.2,252.3,223.4,285.1,459.9
		c6.5,47.5,6.5,188.3-0.4,243.3c-52.6,439.5-327.6,825.2-633.3,889.4C4180.1,8609.3,4116.1,8612.1,4085.7,8607.7z"/>
	<path class="st7" d="M7517.5,8284.6c-145.8-30.7-288.7-131.6-407.4-288c-128.8-169.9-215.4-391.7-240.5-615
		c-6.5-58.2-5.3-183.5,2-239.7c49.4-378.1,310.2-559.6,605.4-422.4c158.3,73.8,301.7,225.8,404.1,428
		c194.4,382.9,181.8,831.6-29.6,1039.4C7762.5,8274.6,7639.8,8310.5,7517.5,8284.6z"/>
	<path class="st7" d="M5758.1,7575c-268.1-47.1-606.2-324.3-905.8-742.3c-234.5-327.5-399.7-680-449.1-959.2
		c-11.7-67-13-186.7-2.4-232.5c16.6-71.4,44.5-118.5,98.8-168.3c90.7-82.6,199.6-131.2,336.1-150c70.9-9.6,214.2-6,305.3,7.6
		c121.9,18.7,224.7,43.1,455.1,108.5c222.7,63,285.1,76.2,346.6,72.2c78.2-5.2,136.9-23.9,305.3-96.9
		c120.7-52.2,187.9-77,245.4-90.9c214.6-51.1,395.2,15.6,581.1,214.2c55.5,59,72.5,87.7,89.9,150.4c9.7,35.9,10.5,43.9,10.5,128
		c0,76.2-1.2,97.7-9.3,141.6c-47.8,266-189.9,587.5-395.2,893.4c-244.2,363.8-530.9,625.8-770.2,703.6
		C5913.2,7582.6,5839.1,7589,5758.1,7575z"/>
</g>
<path id="SVGID_x5F_1_x5F__1_" class="st8" d="M906.3,538.7c0,161.5-146,292.5-326,292.5s-326-131-326-292.5s146-292.5,326-292.5
	S906.3,377.2,906.3,538.7z"/>
<text><textPath  xlink:href="#SVGID_x5F_1_x5F__1_" startOffset="-1522.5992%">
<tspan  style="fill:#231F20; font-family:'Algerian'; font-size:102px;">House Of Hope</tspan></textPath>
</text>
</svg>
